<svg xmlns="http://www.w3.org/2000/svg" viewBox="0 0 400 200" fill="none">
  <defs>
    <linearGradient id="cl1" x1="0%" y1="0%" x2="100%" y2="100%">
      <stop offset="0%" style="stop-color:#EFEBE9"/><stop offset="100%" style="stop-color:#D7CCC8"/>
    </linearGradient>
  </defs>
  <rect width="400" height="200" rx="16" fill="url(#cl1)"/>
  <!-- Beaker -->
  <rect x="150" y="40" width="100" height="110" rx="8" fill="#78909C" opacity="0.3"/>
  <rect x="155" y="45" width="90" height="100" rx="5" fill="white" opacity="0.6"/>
  <!-- Sludge layers -->
  <rect x="155" y="95" width="90" height="50" rx="0 0 5 5" fill="#6D4C41" opacity="0.7"/>
  <rect x="155" y="80" width="90" height="20" fill="#8D6E63" opacity="0.5"/>
  <!-- Bubbles -->
  <circle cx="180" cy="110" r="4" fill="white" opacity="0.3"/>
  <circle cx="210" cy="105" r="3" fill="white" opacity="0.25"/>
  <circle cx="225" cy="120" r="5" fill="white" opacity="0.2"/>
  <!-- Dropper -->
  <rect x="190" y="20" width="20" height="28" rx="3" fill="#5D4037"/>
  <circle cx="200" cy="16" r="8" fill="#8D6E63"/>
  <path d="M196 48 L200 56 L204 48" fill="#4CAF50"/>
  <!-- Lab flask small -->
  <path d="M80 90 L80 140 Q80 155 95 155 L105 155 Q120 155 120 140 L120 90 Z" fill="white" opacity="0.5" stroke="#8D6E63" stroke-width="2"/>
  <rect x="88" y="75" width="24" height="18" rx="3" fill="#8D6E63"/>
  <rect x="80" y="120" width="40" height="35" fill="#A1887F" opacity="0.4"/>
  <!-- Molecule dots -->
  <circle cx="310" cy="80" r="10" fill="#4CAF50" opacity="0.6"/>
  <circle cx="330" cy="95" r="8" fill="#66BB6A" opacity="0.5"/>
  <circle cx="315" cy="105" r="6" fill="#81C784" opacity="0.4"/>
  <line x1="310" y1="80" x2="330" y2="95" stroke="#4CAF50" stroke-width="2" opacity="0.4"/>
  <line x1="330" y1="95" x2="315" y2="105" stroke="#4CAF50" stroke-width="2" opacity="0.4"/>
  <text x="200" y="185" text-anchor="middle" font-family="Poppins,sans-serif" font-size="13" font-weight="600" fill="#5D4037">Tratamiento de Lodos</text>
</svg>
